<svg width="17" height="21" viewBox="0 0 17 21" fill="none" xmlns="http://www.w3.org/2000/svg">
<path d="M6.59967 1.62471H10.396V2.38162H11.767V1.51875C11.7672 0.681343 11.1925 0 10.4861 0H6.50955C5.80318 0 5.22852 0.681343 5.22852 1.51875V2.38162H6.59967V1.62471Z" fill="#EE6165"/>
<path d="M15.0783 7.14478H1.92756C1.56722 7.14478 1.28355 7.40281 1.31259 7.70439L2.41203 19.116C2.4733 19.753 3.10633 20.2437 3.86685 20.2437H13.1388C13.8994 20.2437 14.5324 19.753 14.5937 19.1158L15.6931 7.70439C15.7223 7.40281 15.4386 7.14478 15.0783 7.14478ZM5.11184 19.0265C5.09714 19.0273 5.08244 19.0277 5.06792 19.0277C4.70068 19.0277 4.3924 18.7877 4.36955 18.4758L3.68057 9.1075C3.65684 8.78333 3.9506 8.50434 4.33662 8.48442C4.72139 8.4648 5.05517 8.7108 5.0789 9.03512L5.76771 18.4034C5.79161 18.7276 5.49785 19.0065 5.11184 19.0265ZM9.21122 18.4397C9.21122 18.7643 8.89762 19.0276 8.51072 19.0276C8.12382 19.0276 7.81023 18.7643 7.81023 18.4397V9.07124C7.81023 8.74647 8.12382 8.48323 8.51072 8.48323C8.89745 8.48323 9.21122 8.74647 9.21122 9.07124V18.4397ZM13.3253 9.10587L12.6675 18.4742C12.6457 18.7866 12.3369 19.0276 11.9689 19.0276C11.9551 19.0276 11.9411 19.0273 11.9271 19.0267C11.5409 19.0075 11.2463 18.7292 11.2691 18.4051L11.9268 9.0366C11.9494 8.71243 12.2799 8.4651 12.6671 8.48428C13.0533 8.5033 13.348 8.78169 13.3253 9.10587Z" fill="#EE6165"/>
<path d="M16.9717 5.29473L16.5385 4.09978C16.4243 3.78477 16.1039 3.57227 15.743 3.57227H1.25688C0.896094 3.57227 0.575493 3.78477 0.461457 4.09978L0.0283198 5.29473C-0.0552066 5.52519 0.0534945 5.76025 0.256392 5.87748C0.339085 5.92519 0.436949 5.95389 0.544483 5.95389H16.4555C16.563 5.95389 16.6611 5.92519 16.7436 5.87732C16.9465 5.7601 17.0552 5.52503 16.9717 5.29473Z" fill="#EE6165"/>
</svg>
