<svg width="26" height="26" viewBox="0 0 26 26" fill="none" xmlns="http://www.w3.org/2000/svg">
<path d="M14.4364 13L25.7025 1.73383C26.0992 1.33718 26.0992 0.69409 25.7025 0.297489C25.3059 -0.0991121 24.6628 -0.0991629 24.2662 0.297489L13 11.5637L1.73383 0.297489C1.33718 -0.0991629 0.69409 -0.0991629 0.297489 0.297489C-0.0991121 0.69414 -0.0991629 1.33723 0.297489 1.73383L11.5636 13L0.297489 24.2662C-0.0991629 24.6628 -0.0991629 25.3059 0.297489 25.7025C0.495789 25.9008 0.755738 26 1.01569 26C1.27564 26 1.53553 25.9008 1.73388 25.7025L13 14.4364L24.2661 25.7025C24.4644 25.9008 24.7244 26 24.9843 26C25.2443 26 25.5042 25.9008 25.7025 25.7025C26.0992 25.3059 26.0992 24.6628 25.7025 24.2662L14.4364 13Z" fill="white"/>
</svg>
