<svg width="19" height="19" viewBox="0 0 19 19" fill="none" xmlns="http://www.w3.org/2000/svg">
<path d="M13.8223 12.1768L11.0249 9.37939C10.934 9.28852 10.934 9.14117 11.0249 9.05029L13.8223 6.25293C14.2766 5.79857 14.2766 5.06178 13.8223 4.60742C13.3679 4.15306 12.6311 4.15306 12.1768 4.60742L9.37939 7.40478C9.28852 7.49566 9.14117 7.49566 9.05029 7.40478L6.25293 4.60742C5.79857 4.15306 5.06178 4.15306 4.60742 4.60742C4.15306 5.06178 4.15306 5.79857 4.60742 6.25293L7.40478 9.05029C7.49566 9.14117 7.49566 9.28852 7.40478 9.37939L4.60742 12.1768C4.15306 12.6311 4.15306 13.3679 4.60742 13.8223C5.06178 14.2766 5.79857 14.2766 6.25293 13.8223L9.05029 11.0249C9.14116 10.934 9.28852 10.934 9.37939 11.0249L12.1768 13.8223C12.6311 14.2766 13.3679 14.2766 13.8223 13.8223C14.2766 13.3679 14.2766 12.6311 13.8223 12.1768Z" fill="#B1B1B1"/>
</svg>
