<svg width="17" height="17" viewBox="0 0 17 17" fill="none" xmlns="http://www.w3.org/2000/svg">
<path d="M14.5914 2.05418C14.4381 1.96503 14.2488 1.96503 14.0955 2.05418C13.502 2.38349 12.8335 2.55425 12.1547 2.55C11.1622 2.57195 10.2026 2.19423 9.4914 1.50168C8.67035 0.697996 7.56024 0.258852 6.41158 0.283355C5.48651 0.275354 4.58205 0.556684 3.82476 1.08803V0.85C3.82476 0.380574 3.44421 0 2.97476 0C2.5053 0 2.12476 0.380541 2.12476 0.85V16.15C2.12476 16.6194 2.5053 17 2.97476 17C3.44418 17 3.82476 16.6195 3.82476 16.15V8.78332C3.91865 8.77452 4.0081 8.73916 4.08258 8.68132C4.75667 8.1849 5.57449 7.92227 6.41158 7.93332C7.40588 7.91048 8.36761 8.28823 9.08058 8.98164C9.90006 9.78416 11.008 10.2232 12.1548 10.2C13.0336 10.2102 13.8956 9.95871 14.6311 9.47747C14.7885 9.36839 14.8801 9.18721 14.8748 8.99579V2.55C14.8765 2.34573 14.7683 2.15631 14.5914 2.05418Z" fill="#EE6165"/>
</svg>
