<svg width="31" height="23" viewBox="0 0 31 23" fill="none" xmlns="http://www.w3.org/2000/svg">
<path d="M20.5498 11.6899L31.0003 18.2965V4.8042L20.5498 11.6899Z" fill="#EE6165"/>
<path d="M0 4.8042V18.2965L10.4505 11.6899L0 4.8042Z" fill="#EE6165"/>
<path d="M29.062 0.875488H1.93791C0.971127 0.875488 0.203902 1.59622 0.0585938 2.52425L15.5 12.6977L30.9414 2.52425C30.796 1.59622 30.0288 0.875488 29.062 0.875488Z" fill="#EE6165"/>
<path d="M18.7733 12.8603L16.0318 14.666C15.8691 14.7726 15.685 14.8249 15.499 14.8249C15.313 14.8249 15.129 14.7726 14.9662 14.666L12.2248 12.8584L0.0615234 20.552C0.210706 21.4722 0.974057 22.1872 1.93696 22.1872H29.0611C30.024 22.1872 30.7874 21.4722 30.9365 20.552L18.7733 12.8603Z" fill="#EE6165"/>
</svg>
