<svg width="16" height="10" viewBox="0 0 16 10" fill="none" xmlns="http://www.w3.org/2000/svg">
<path d="M8 0.231689C4.94303 0.231689 2.17081 1.90419 0.125192 4.62077C-0.0417306 4.84333 -0.0417306 5.15426 0.125192 5.37683C2.17081 8.09668 4.94303 9.76917 8 9.76917C11.057 9.76917 13.8292 8.09668 15.8748 5.3801C16.0417 5.15754 16.0417 4.8466 15.8748 4.62404C13.8292 1.90419 11.057 0.231689 8 0.231689ZM8.21929 8.35852C6.19004 8.48616 4.51427 6.81367 4.64191 4.78114C4.74665 3.10537 6.10494 1.74708 7.78071 1.64235C9.80996 1.5147 11.4857 3.1872 11.3581 5.21972C11.2501 6.89222 9.89179 8.25051 8.21929 8.35852ZM8.11783 6.80712C7.02465 6.87585 6.1213 5.97578 6.19331 4.88261C6.24895 3.97926 6.9821 3.24938 7.88545 3.19047C8.97862 3.12174 9.88197 4.02181 9.80996 5.11499C9.75105 6.02161 9.0179 6.75148 8.11783 6.80712Z" fill="#B397F2"/>
</svg>
