<svg width="16" height="16" viewBox="0 0 16 16" fill="none" xmlns="http://www.w3.org/2000/svg">
<g clip-path="url(#clip0)">
<path d="M8 3.23178C4.94303 3.23178 2.17081 4.90428 0.125192 7.62086C-0.0417306 7.84342 -0.0417306 8.15435 0.125192 8.37692C2.17081 11.0968 4.94303 12.7693 8 12.7693C11.057 12.7693 13.8292 11.0968 15.8748 8.38019C16.0417 8.15763 16.0417 7.84669 15.8748 7.62413C13.8292 4.90428 11.057 3.23178 8 3.23178ZM8.21929 11.3586C6.19004 11.4863 4.51427 9.81376 4.64191 7.78123C4.74665 6.10546 6.10494 4.74717 7.78071 4.64244C9.80996 4.51479 11.4857 6.18729 11.3581 8.21981C11.2501 9.89231 9.89179 11.2506 8.21929 11.3586ZM8.11783 9.80721C7.02465 9.87595 6.1213 8.97587 6.19331 7.8827C6.24895 6.97935 6.9821 6.24948 7.88545 6.19056C8.97862 6.12183 9.88197 7.0219 9.80996 8.11508C9.75105 9.0217 9.0179 9.75157 8.11783 9.80721Z" fill="#B397F2"/>
</g>
<defs>
<clipPath id="clip0">
<rect width="16" height="16" fill="white"/>
</clipPath>
</defs>
</svg>
