<svg width="73" height="73" viewBox="0 0 73 73" fill="none" xmlns="http://www.w3.org/2000/svg">
<circle cx="36.167" cy="36.5" r="35.5" stroke="url(#paint0_linear)"/>
<path fill-rule="evenodd" clip-rule="evenodd" d="M36.1663 24.6667C32.9516 24.6667 32.5513 24.6806 31.2871 24.7397C26.9876 24.9369 24.6012 27.3214 24.404 31.6208C24.3468 32.885 24.333 33.2873 24.333 36.5001C24.333 39.7148 24.3468 40.1171 24.404 41.3794C24.6012 45.6768 26.9876 48.0652 31.2871 48.2624C32.5513 48.3196 32.9516 48.3334 36.1663 48.3334C39.3811 48.3334 39.7834 48.3196 41.0476 48.2624C45.3391 48.0652 47.7354 45.6808 47.9287 41.3794C47.9859 40.1171 47.9997 39.7148 47.9997 36.5001C47.9997 33.2873 47.9859 32.885 47.9287 31.6208C47.7354 27.3273 45.347 24.935 41.0476 24.7397C39.7834 24.6806 39.3811 24.6667 36.1663 24.6667ZM36.1671 26.8006C39.3266 26.8006 39.7013 26.8125 40.9497 26.8697C44.1585 27.0156 45.6535 28.5362 45.8014 31.7194C45.8566 32.9678 45.8684 33.3405 45.8684 36.5C45.8684 39.6595 45.8566 40.0342 45.8014 41.2807C45.6535 44.4619 44.1605 45.9864 40.9497 46.1324C39.7013 46.1876 39.3286 46.2014 36.1671 46.2014C33.0076 46.2014 32.6329 46.1895 31.3864 46.1324C28.1717 45.9844 26.6827 44.4579 26.5347 41.2807C26.4795 40.0342 26.4657 39.6595 26.4657 36.5C26.4657 33.3405 26.4795 32.9658 26.5347 31.7194C26.6807 28.5342 28.1756 27.0136 31.3864 26.8677C32.6329 26.8105 33.0076 26.8006 36.1671 26.8006ZM30.0894 36.5002C30.0894 33.1435 32.8111 30.4238 36.1658 30.4238C39.5206 30.4238 42.2423 33.1455 42.2423 36.5002C42.2423 39.8569 39.5206 42.5766 36.1658 42.5766C32.8111 42.5766 30.0894 39.8569 30.0894 36.5002ZM36.1665 40.4444C33.9872 40.4444 32.2221 38.6793 32.2221 36.5C32.2221 34.3226 33.9872 32.5555 36.1665 32.5555C38.3438 32.5555 40.1129 34.3207 40.1129 36.5C40.1129 38.6793 38.3438 40.4444 36.1665 40.4444ZM41.062 30.185C41.062 29.4001 41.6991 28.765 42.482 28.765C43.2689 28.765 43.904 29.4001 43.904 30.185C43.904 30.97 43.267 31.605 42.482 31.605C41.6971 31.605 41.062 30.968 41.062 30.185Z" fill="url(#paint1_linear)"/>
<defs>
<linearGradient id="paint0_linear" x1="-34.833" y1="36.5" x2="36.167" y2="107.5" gradientUnits="userSpaceOnUse">
<stop stop-color="#93F6A5"/>
<stop offset="1" stop-color="#58D2E5"/>
</linearGradient>
<linearGradient id="paint1_linear" x1="12.4997" y1="36.5001" x2="36.1663" y2="60.1667" gradientUnits="userSpaceOnUse">
<stop stop-color="#93F6A5"/>
<stop offset="1" stop-color="#58D2E5"/>
</linearGradient>
</defs>
</svg>
