<svg width="73" height="73" viewBox="0 0 73 73" fill="none" xmlns="http://www.w3.org/2000/svg">
<circle cx="36.333" cy="36.5" r="35.5" stroke="url(#paint0_linear)"/>
<path fill-rule="evenodd" clip-rule="evenodd" d="M34.1886 44.933H35.922C35.922 44.933 36.4456 44.8774 36.7129 44.5987C36.959 44.3429 36.9511 43.8623 36.9511 43.8623C36.9511 43.8623 36.9173 41.6129 37.9968 41.2816C39.0609 40.9553 40.4274 43.4557 41.8758 44.4171C42.9711 45.1447 43.8034 44.9852 43.8034 44.9852L47.6762 44.933C47.6762 44.933 49.7021 44.8123 48.7415 43.2718C48.6628 43.1458 48.1821 42.1322 45.862 40.0495C43.4337 37.8697 43.7589 38.2223 46.684 34.4518C48.4655 32.1555 49.1777 30.7536 48.9553 30.1531C48.7431 29.5812 47.4329 29.7324 47.4329 29.7324L43.0723 29.7587C43.0723 29.7587 42.7491 29.716 42.5093 29.8546C42.2751 29.9905 42.1243 30.3073 42.1243 30.3073C42.1243 30.3073 41.4341 32.0843 40.5137 33.5955C38.572 36.7842 37.7956 36.9525 37.4783 36.7545C36.7401 36.2931 36.9243 34.9007 36.9243 33.9115C36.9243 30.8213 37.409 29.5329 35.9807 29.1993C35.5066 29.0885 35.1578 29.0154 33.9457 29.0036C32.3898 28.988 31.0729 29.0082 30.3272 29.3615C29.8311 29.5965 29.4485 30.12 29.6815 30.1501C29.9697 30.1874 30.6225 30.3203 30.9685 30.776C31.4154 31.3639 31.3996 32.6843 31.3996 32.6843C31.3996 32.6843 31.6563 36.322 30.8 36.774C30.2122 37.0839 29.406 36.4511 27.6749 33.5582C26.7879 32.0763 26.1182 30.4383 26.1182 30.4383C26.1182 30.4383 25.9891 30.1322 25.7588 29.9685C25.4792 29.7701 25.0887 29.7069 25.0887 29.7069L20.9451 29.7331C20.9451 29.7331 20.323 29.7499 20.0947 30.0115C19.8915 30.2441 20.0785 30.7254 20.0785 30.7254C20.0785 30.7254 23.3226 38.0655 26.9958 41.7644C30.3638 45.1558 34.1886 44.933 34.1886 44.933Z" fill="url(#paint1_linear)"/>
<defs>
<linearGradient id="paint0_linear" x1="-34.667" y1="36.5" x2="36.333" y2="107.5" gradientUnits="userSpaceOnUse">
<stop stop-color="#93F6A5"/>
<stop offset="1" stop-color="#58D2E5"/>
</linearGradient>
<linearGradient id="paint1_linear" x1="5.5" y1="37" x2="19.0351" y2="61.5324" gradientUnits="userSpaceOnUse">
<stop stop-color="#93F6A5"/>
<stop offset="1" stop-color="#58D2E5"/>
</linearGradient>
</defs>
</svg>
