<svg width="50" height="50" viewBox="0 0 50 50" fill="none" xmlns="http://www.w3.org/2000/svg">
<circle cx="25" cy="25" r="24" stroke="url(#paint0_linear)"/>
<path fill-rule="evenodd" clip-rule="evenodd" d="M25 17C22.8267 17 22.556 17.0093 21.7013 17.0493C18.7947 17.1827 17.1813 18.7947 17.048 21.7013C17.0093 22.556 17 22.828 17 25C17 27.1733 17.0093 27.4453 17.048 28.2987C17.1813 31.204 18.7947 32.8187 21.7013 32.952C22.556 32.9907 22.8267 33 25 33C27.1733 33 27.4453 32.9907 28.3 32.952C31.2013 32.8187 32.8213 31.2067 32.952 28.2987C32.9907 27.4453 33 27.1733 33 25C33 22.828 32.9907 22.556 32.952 21.7013C32.8213 18.7987 31.2067 17.1813 28.3 17.0493C27.4453 17.0093 27.1733 17 25 17ZM25 18.4427C27.136 18.4427 27.3893 18.4507 28.2333 18.4893C30.4027 18.588 31.4133 19.616 31.5133 21.768C31.5507 22.612 31.5587 22.864 31.5587 25C31.5587 27.136 31.5507 27.3893 31.5133 28.232C31.4133 30.3827 30.404 31.4133 28.2333 31.512C27.3893 31.5493 27.1373 31.5587 25 31.5587C22.864 31.5587 22.6107 31.5507 21.768 31.512C19.5947 31.412 18.588 30.38 18.488 28.232C18.4507 27.3893 18.4413 27.136 18.4413 25C18.4413 22.864 18.4507 22.6107 18.488 21.768C18.5867 19.6147 19.5973 18.5867 21.768 18.488C22.6107 18.4493 22.864 18.4427 25 18.4427ZM20.892 25C20.892 22.7307 22.732 20.892 25 20.892C27.268 20.892 29.108 22.732 29.108 25C29.108 27.2693 27.268 29.108 25 29.108C22.732 29.108 20.892 27.2693 20.892 25ZM25 27.6667C23.5267 27.6667 22.3333 26.4733 22.3333 25C22.3333 23.528 23.5267 22.3333 25 22.3333C26.472 22.3333 27.668 23.5267 27.668 25C27.668 26.4733 26.472 27.6667 25 27.6667ZM28.3093 20.7307C28.3093 20.2 28.74 19.7707 29.2693 19.7707C29.8013 19.7707 30.2307 20.2 30.2307 20.7307C30.2307 21.2613 29.8 21.6907 29.2693 21.6907C28.7387 21.6907 28.3093 21.26 28.3093 20.7307Z" fill="url(#paint1_linear)"/>
<defs>
<linearGradient id="paint0_linear" x1="-23" y1="25" x2="25" y2="73" gradientUnits="userSpaceOnUse">
<stop stop-color="#93F6A5"/>
<stop offset="1" stop-color="#58D2E5"/>
</linearGradient>
<linearGradient id="paint1_linear" x1="9" y1="25" x2="25" y2="41" gradientUnits="userSpaceOnUse">
<stop stop-color="#93F6A5"/>
<stop offset="1" stop-color="#58D2E5"/>
</linearGradient>
</defs>
</svg>
