<svg width="15" height="15" viewBox="0 0 15 15" fill="none" xmlns="http://www.w3.org/2000/svg">
<path d="M7.50003 7.33599C9.16777 7.33599 10.5199 5.69379 10.5199 3.66801C10.5199 1.6422 10.076 0 7.50003 0C4.9241 0 4.4801 1.6422 4.4801 3.66801C4.4801 5.69379 5.8322 7.33599 7.50003 7.33599Z" fill="#B397F2"/>
<path d="M1.79613 12.9365C1.79561 12.813 1.7951 12.9017 1.79613 12.9365V12.9365Z" fill="#B397F2"/>
<path d="M13.2037 13.0328C13.2053 12.999 13.2042 12.7983 13.2037 13.0328V13.0328Z" fill="#B397F2"/>
<path d="M13.1973 12.7882C13.1414 9.25926 12.6805 8.2537 9.15364 7.61719C9.15364 7.61719 8.65719 8.2498 7.50004 8.2498C6.3429 8.2498 5.84636 7.61719 5.84636 7.61719C2.358 8.24676 1.86909 9.2374 1.8048 12.6736C1.79953 12.9541 1.79709 12.9689 1.79614 12.9363C1.79636 12.9973 1.79661 13.1102 1.79661 13.3071C1.79661 13.3071 2.63627 14.9998 7.50004 14.9998C12.3637 14.9998 13.2035 13.3071 13.2035 13.3071C13.2035 13.1806 13.2036 13.0927 13.2037 13.0328C13.2027 13.053 13.2009 13.0139 13.1973 12.7882Z" fill="#B397F2"/>
</svg>
