<svg width="21" height="19" viewBox="0 0 21 19" fill="none" xmlns="http://www.w3.org/2000/svg">
<path d="M19.3829 2.83166C19.2608 1.24995 17.9357 0 16.3232 0H3.06986C1.37715 0 0 1.37715 0 3.06981V14.9801C0 16.6727 1.37715 18.0499 3.06986 18.0499H17.9301C19.6228 18.0499 21 16.6727 21 14.9801V5.53415C20.9999 4.36691 20.3446 3.35059 19.3829 2.83166ZM17.7308 14.9801C17.7308 15.7562 17.0994 16.3877 16.3233 16.3877H3.06986C2.29372 16.3877 1.66229 15.7562 1.66229 14.9801V3.06981C1.66229 2.29372 2.29372 1.66224 3.06986 1.66224H16.3233C17.0994 1.66224 17.7308 2.29372 17.7308 3.06981V14.9801Z" fill="#EE6165"/>
<path d="M7.57486 6.3999H3.45614C2.99715 6.3999 2.625 6.77199 2.625 7.23104C2.625 7.69004 2.99709 8.06218 3.45614 8.06218H7.57481C8.03381 8.06218 8.40596 7.69004 8.40596 7.23104C8.40601 6.77199 8.03386 6.3999 7.57486 6.3999Z" fill="#EE6165"/>
<path d="M7.57486 3.77515H3.45614C2.99715 3.77515 2.625 4.14724 2.625 4.60629C2.625 5.06528 2.99709 5.43743 3.45614 5.43743H7.57481C8.03381 5.43743 8.40596 5.06528 8.40596 4.60629C8.40601 4.14724 8.03386 3.77515 7.57486 3.77515Z" fill="#EE6165"/>
<path d="M7.57486 9.0249H3.45614C2.99715 9.0249 2.625 9.39705 2.625 9.85605C2.625 10.3151 2.99709 10.6872 3.45614 10.6872H7.57481C8.03381 10.6872 8.40596 10.3151 8.40596 9.85605C8.40601 9.39705 8.03386 9.0249 7.57486 9.0249Z" fill="#EE6165"/>
<path d="M7.57486 11.6499H3.45614C2.99715 11.6499 2.625 12.022 2.625 12.481C2.625 12.94 2.99709 13.3122 3.45614 13.3122H7.57481C8.03381 13.3122 8.40596 12.94 8.40596 12.481C8.40601 12.022 8.03386 11.6499 7.57486 11.6499Z" fill="#EE6165"/>
<path d="M15.6009 2.82227H9.7056C9.41951 2.82227 9.1875 3.16449 9.1875 3.58638V13.8706C9.1875 14.2926 9.41951 14.6347 9.7056 14.6347H15.6009C15.8871 14.6347 16.119 14.2925 16.119 13.8706V3.58638C16.119 3.1644 15.8871 2.82227 15.6009 2.82227Z" fill="#EE6165"/>
</svg>
