<svg width="24" height="25" viewBox="0 0 24 25" fill="none" xmlns="http://www.w3.org/2000/svg">
<path d="M23.3707 18.3475L20.0143 14.8586C18.8157 13.6126 16.7779 14.1111 16.2984 15.7308C15.9388 16.8523 14.7401 17.4753 13.6613 17.2261C11.2639 16.603 8.02748 13.3634 7.42814 10.7468C7.06853 9.62536 7.78775 8.37935 8.86656 8.0056C10.4249 7.50719 10.9043 5.38898 9.70564 4.14297L6.34932 0.654154C5.39038 -0.218051 3.95195 -0.218051 3.11287 0.654154L0.835372 3.02157C-1.44213 5.51358 1.07511 12.1174 6.70893 17.9737C12.3428 23.8299 18.6958 26.5712 21.0932 24.0791L23.3707 21.7117C24.2098 20.7149 24.2098 19.2197 23.3707 18.3475Z" fill="#6BDED0"/>
</svg>
