<svg width="29" height="29" viewBox="0 0 29 29" fill="none" xmlns="http://www.w3.org/2000/svg">
<path d="M14.5 0C6.49456 0 0 6.48636 0 14.4924C0 22.506 6.49456 29 14.5 29C22.5098 29 28.9989 22.506 28.9989 14.4924C28.9989 6.48636 22.5098 0 14.5 0ZM15.5333 22.5606C15.1965 22.8603 14.8062 23.0109 14.3641 23.0109C13.9067 23.0109 13.5077 22.863 13.1671 22.5666C12.8259 22.2707 12.655 21.8564 12.655 21.3242C12.655 20.852 12.8204 20.4546 13.1501 20.1326C13.4799 19.8105 13.8843 19.6495 14.3641 19.6495C14.8363 19.6495 15.2337 19.8105 15.5563 20.1326C15.8783 20.4546 16.0399 20.852 16.0399 21.3242C16.0393 21.8488 15.8706 22.2609 15.5333 22.5606ZM19.7325 12.1501C19.4738 12.6299 19.1665 13.0436 18.8101 13.3925C18.4547 13.7413 17.8155 14.3275 16.893 15.1517C16.6386 15.3843 16.434 15.5884 16.2806 15.7642C16.1272 15.9405 16.0126 16.1015 15.9378 16.2478C15.8624 16.3941 15.8046 16.5404 15.7636 16.6866C15.7227 16.8324 15.661 17.0895 15.5775 17.4568C15.4356 18.2363 14.9896 18.626 14.2402 18.626C13.8504 18.626 13.5229 18.4988 13.256 18.2439C12.9901 17.989 12.8575 17.6107 12.8575 17.1086C12.8575 16.4792 12.9552 15.9339 13.1501 15.4727C13.3439 15.0114 13.6032 14.6069 13.9252 14.2582C14.2478 13.9094 14.6823 13.4956 15.2298 13.0158C15.7096 12.596 16.0562 12.2794 16.2696 12.066C16.4836 11.852 16.6632 11.614 16.8089 11.352C16.9558 11.0894 17.0278 10.8051 17.0278 10.4978C17.0278 9.89789 16.8057 9.39244 16.3592 8.98033C15.9133 8.56821 15.3379 8.36185 14.6332 8.36185C13.8084 8.36185 13.2014 8.56983 12.8117 8.98577C12.4219 9.40171 12.0928 10.0141 11.8226 10.8237C11.5672 11.6708 11.0835 12.0944 10.3723 12.0944C9.95249 12.0944 9.59826 11.9464 9.30951 11.6506C9.02129 11.3547 8.87718 11.0343 8.87718 10.6893C8.87718 9.97754 9.1059 9.25592 9.56281 8.52503C10.0202 7.79415 10.6873 7.18877 11.5644 6.70951C12.441 6.22971 13.4645 5.9895 14.6332 5.9895C15.72 5.9895 16.6791 6.19035 17.5109 6.59159C18.3428 6.99222 18.9858 7.53756 19.4394 8.22748C19.8925 8.91687 20.1195 9.66635 20.1195 10.4759C20.1206 11.1119 19.9913 11.6703 19.7325 12.1501Z" fill="#D5D5D5"/>
</svg>
