<svg width="13" height="15" viewBox="0 0 13 15" fill="none" xmlns="http://www.w3.org/2000/svg">
<path d="M6.5004 7.33599C8.16814 7.33599 9.52024 5.69379 9.52024 3.66801C9.52024 1.6422 9.07632 0 6.5004 0C3.92447 0 3.48047 1.6422 3.48047 3.66801C3.48047 5.69379 4.83257 7.33599 6.5004 7.33599Z" fill="#B397F2"/>
<path d="M12.2031 13.0328C12.2047 12.999 12.2037 12.7983 12.2031 13.0328V13.0328Z" fill="#B397F2"/>
<path d="M12.1961 12.7882C12.1402 9.25926 11.6793 8.2537 8.15242 7.61719C8.15242 7.61719 7.65596 8.2498 6.49882 8.2498C5.34168 8.2498 4.84514 7.61719 4.84514 7.61719C1.35678 8.24676 0.867865 9.2374 0.803579 12.6736C0.798308 12.9541 0.795865 12.9689 0.794922 12.9363C0.795136 12.9973 0.795393 13.1102 0.795393 13.3071C0.795393 13.3071 1.63505 14.9998 6.49882 14.9998C11.3625 14.9998 12.2023 13.3071 12.2023 13.3071C12.2023 13.1806 12.2023 13.0927 12.2025 13.0328C12.2015 13.053 12.1996 13.0139 12.1961 12.7882Z" fill="#B397F2"/>
</svg>
