<svg width="50" height="50" viewBox="0 0 50 50" fill="none" xmlns="http://www.w3.org/2000/svg">
<circle cx="25" cy="25" r="24" stroke="url(#paint0_linear)"/>
<path fill-rule="evenodd" clip-rule="evenodd" d="M23.7852 30.9539H24.9807C24.9807 30.9539 25.3418 30.9157 25.5262 30.7241C25.6959 30.5482 25.6904 30.2179 25.6904 30.2179C25.6904 30.2179 25.6671 28.6714 26.4116 28.4436C27.1455 28.2193 28.0879 29.9383 29.0868 30.5993C29.8421 31.0995 30.4161 30.9898 30.4161 30.9898L33.087 30.9539C33.087 30.9539 34.4842 30.871 33.8217 29.8119C33.7674 29.7252 33.4359 29.0284 31.8359 27.5966C30.1612 26.098 30.3854 26.3403 32.4028 23.7481C33.6314 22.1694 34.1226 21.2056 33.9692 20.7928C33.8228 20.3996 32.9192 20.5035 32.9192 20.5035L29.9119 20.5216C29.9119 20.5216 29.689 20.4923 29.5237 20.5875C29.3621 20.681 29.2581 20.8988 29.2581 20.8988C29.2581 20.8988 28.7822 22.1204 28.1474 23.1594C26.8082 25.3517 26.2728 25.4674 26.054 25.3312C25.5449 25.014 25.672 24.0567 25.672 23.3766C25.672 21.2522 26.0062 20.3664 25.0211 20.137C24.6942 20.0609 24.4537 20.0106 23.6177 20.0025C22.5447 19.9918 21.6365 20.0056 21.1222 20.2486C20.7801 20.4101 20.5162 20.77 20.6769 20.7907C20.8757 20.8163 21.3258 20.9077 21.5645 21.221C21.8727 21.6252 21.8618 22.533 21.8618 22.533C21.8618 22.533 22.0388 25.0339 21.4483 25.3446C21.0429 25.5577 20.4869 25.1226 19.293 23.1337C18.6813 22.1149 18.2195 20.9888 18.2195 20.9888C18.2195 20.9888 18.1304 20.7784 17.9716 20.6658C17.7788 20.5294 17.5094 20.486 17.5094 20.486L14.6518 20.504C14.6518 20.504 14.2228 20.5156 14.0653 20.6954C13.9252 20.8553 14.0542 21.1862 14.0542 21.1862C14.0542 21.1862 16.2914 26.2325 18.8247 28.7755C21.1475 31.1071 23.7852 30.9539 23.7852 30.9539Z" fill="url(#paint1_linear)"/>
<defs>
<linearGradient id="paint0_linear" x1="-23" y1="25" x2="25" y2="73" gradientUnits="userSpaceOnUse">
<stop stop-color="#93F6A5"/>
<stop offset="1" stop-color="#58D2E5"/>
</linearGradient>
<linearGradient id="paint1_linear" x1="4" y1="25.5" x2="13.2898" y2="42.3906" gradientUnits="userSpaceOnUse">
<stop stop-color="#93F6A5"/>
<stop offset="1" stop-color="#58D2E5"/>
</linearGradient>
</defs>
</svg>
